# File created by Blade
# Date/Time:  Wed Apr 08 14:47:20 2015
# Frame Rate: 120.000 fps
#------------------------------------------------------
:FULLY-SPECIFIED
:DEGREES
3657
root 4.410560 32.478732 -0.886413 6.197101 -2.522291 -3.778906
Spine 2.972846 -5.988551 -0.058287
Head -5.960302 -7.134232 10.849465
LeftShoulder -14.496499 47.628151 6.379386
LeftArm 52.652339 17.113634 -68.957640
LeftForeArm -15.208195 -0.000000 32.944501
LeftHand 9.471047 -0.000000 -7.787874
LeftHandThumb1 -26.253704 0.000000 33.147579
RightShoulder -3.705634 -11.127156 -13.289356
RightArm 16.370957 -25.734680 84.980138
RightForeArm 6.730189 -0.000000 17.729091
RightHand 6.438123 -0.000000 5.083498
RightHandThumb1 -24.326973 -0.000000 -32.862282
LeftUpLeg -2.815464 -0.491978 5.218824
LeftLeg 9.542755 -0.000000 -0.000000
LeftFoot -14.940382 6.052930 -17.059503
LeftToeBase -1.424005 -0.000000 0.000000
RightUpLeg -15.144704 23.934685 -7.598729
RightLeg 3.476759 -0.000000 -0.000000
RightFoot -5.599634 -40.028425 16.307772
RightToeBase 1.849140 -0.000000 -0.000000
3658
root 4.296115 32.467285 -0.789185 6.173582 -2.476071 -3.795227
Spine 2.888954 -6.011819 -0.009493
Head -5.864958 -7.236380 10.806181
LeftShoulder -14.513861 47.628685 6.340147
LeftArm 52.623201 16.880544 -69.009898
LeftForeArm -15.145003 -0.000000 32.862620
LeftHand 9.712417 -0.000000 -7.429301
LeftHandThumb1 -26.253704 0.000000 33.147579
RightShoulder -3.748606 -11.193715 -13.231698
RightArm 16.344767 -25.827715 84.936930
RightForeArm 6.747451 -0.000000 17.651064
RightHand 6.440785 0.000000 5.098361
RightHandThumb1 -24.326973 -0.000000 -32.862282
LeftUpLeg -2.640649 -0.506114 5.446959
LeftLeg 9.613554 -0.000000 -0.000000
LeftFoot -15.047652 5.896208 -17.275501
LeftToeBase -1.467675 -0.000000 0.000000
RightUpLeg -14.815145 23.730490 -7.186063
RightLeg 3.365926 -0.000000 -0.000000
RightFoot -5.473873 -39.978773 15.624171
RightToeBase 1.921848 -0.000000 -0.000000
3659
root 4.181517 32.457015 -0.690461 6.168143 -2.414770 -3.794756
Spine 2.782067 -6.103658 0.041365
Head -5.769194 -7.261844 10.732576
LeftShoulder -14.631291 47.652877 6.204664
LeftArm 52.607062 16.620563 -69.084613
LeftForeArm -15.079797 0.000000 32.774989
LeftHand 9.772552 -0.000000 -7.318610
LeftHandThumb1 -26.253704 0.000000 33.147579
RightShoulder -3.760846 -11.272689 -13.197465
RightArm 16.374485 -25.861725 84.894852
RightForeArm 6.614124 0.000000 17.536954
RightHand 6.379806 -0.000000 4.770003
RightHandThumb1 -24.326973 -0.000000 -32.862282
LeftUpLeg -2.490989 -0.563428 5.658014
LeftLeg 9.692173 -0.000000 -0.000000
LeftFoot -15.148596 5.791709 -17.484258
LeftToeBase -1.538062 -0.000000 0.000000
RightUpLeg -14.484242 23.465802 -6.776919
RightLeg 3.233687 -0.000000 -0.000000
RightFoot -5.675157 -39.862740 15.181885
RightToeBase 2.686017 -0.000000 -0.000000
3660
root 4.063784 32.447232 -0.587419 6.144318 -2.353190 -3.810958
Spine 2.681345 -6.153152 0.107078
Head -5.658225 -7.328794 10.628670
LeftShoulder -14.691049 47.670335 6.102807
LeftArm 52.577128 16.357707 -69.180979
LeftForeArm -14.933502 -0.000000 32.715309
LeftHand 9.711128 -0.000000 -7.310389
LeftHandThumb1 -26.253704 0.000000 33.147579
RightShoulder -3.808517 -11.329170 -13.127559
RightArm 16.312114 -25.886665 84.864117
RightForeArm 6.670248 -0.000000 17.523780
RightHand 6.448379 -0.000000 4.976803
RightHandThumb1 -24.326973 -0.000000 -32.862282
LeftUpLeg -2.323559 -0.614614 5.888054
LeftLeg 9.786805 -0.000000 -0.000000
LeftFoot -15.242479 5.679326 -17.720112
LeftToeBase -1.639451 -0.000000 0.000000
RightUpLeg -14.123851 23.147254 -6.328886
RightLeg 3.056226 -0.000000 -0.000000
RightFoot -5.644016 -39.884177 14.506665
RightToeBase 2.773265 -0.000000 -0.000000
3661
root 3.945231 32.438675 -0.484732 6.135345 -2.314551 -3.817298
Spine 2.578280 -6.207158 0.168545
Head -5.578432 -7.365797 10.522115
LeftShoulder -14.807915 47.667834 5.949044
LeftArm 52.540237 16.091278 -69.276196
LeftForeArm -14.779252 -0.000000 32.651937
LeftHand 9.781996 -0.000000 -7.324732
LeftHandThumb1 -26.253704 0.000000 33.147579
RightShoulder -3.861097 -11.369654 -13.078446
RightArm 16.334423 -25.973115 84.807295
RightForeArm 6.713862 -0.000000 17.411762
RightHand 6.401196 -0.000000 5.299299
RightHandThumb1 -24.326973 -0.000000 -32.862282
LeftUpLeg -2.172059 -0.682587 6.103833
LeftLeg 9.890603 -0.000000 -0.000000
LeftFoot -15.338026 5.612403 -17.948064
LeftToeBase -1.739308 -0.000000 0.000000
RightUpLeg -13.799877 22.900422 -5.926711
RightLeg 2.914251 -0.000000 -0.000000
RightFoot -5.956486 -39.959956 14.303598
RightToeBase 3.127399 -0.000000 -0.000000
3662
root 3.821571 32.432395 -0.381682 6.161243 -2.233266 -3.875058
Spine 2.422153 -6.319107 0.296774
Head -5.454137 -7.396891 10.394040
LeftShoulder -14.914417 47.668677 5.799664
LeftArm 52.466179 15.809056 -69.441759
LeftForeArm -14.661320 -0.000000 32.578887
LeftHand 9.810891 -0.000000 -7.328428
LeftHandThumb1 -26.253704 0.000000 33.147579
RightShoulder -3.887722 -11.399825 -13.015228
RightArm 16.270077 -25.975943 84.770872
RightForeArm 6.612765 -0.000000 17.419342
RightHand 6.151303 0.000000 5.229505
RightHandThumb1 -24.326973 -0.000000 -32.862282
LeftUpLeg -2.064989 -0.767998 6.385615
LeftLeg 10.000571 -0.000000 -0.000000
LeftFoot -15.417443 5.555180 -18.168800
LeftToeBase -1.776400 -0.000000 0.000000
RightUpLeg -13.516198 22.611057 -5.476707
RightLeg 2.809394 -0.000000 -0.000000
RightFoot -6.189519 -39.911317 14.026213
RightToeBase 3.506746 -0.000000 -0.000000
3663
root 3.696140 32.427046 -0.276281 6.156879 -2.182801 -3.929004
Spine 2.306980 -6.365280 0.423275
Head -5.370743 -7.436619 10.244074
LeftShoulder -14.984226 47.675320 5.660495
LeftArm 52.381350 15.507076 -69.614176
LeftForeArm -14.540818 -0.000000 32.577211
LeftHand 9.801080 -0.000000 -7.257682
LeftHandThumb1 -26.253704 0.000000 33.147579
RightShoulder -3.948876 -11.465183 -12.979031
RightArm 16.343968 -26.067303 84.686973
RightForeArm 6.787129 -0.000000 17.307344
RightHand 6.309556 -0.000000 5.095944
RightHandThumb1 -24.326973 -0.000000 -32.862282
LeftUpLeg -1.927639 -0.822298 6.661309
LeftLeg 10.120577 -0.000000 -0.000000
LeftFoot -15.478339 5.495483 -18.373696
LeftToeBase -1.903890 -0.000000 0.000000
RightUpLeg -13.223102 22.405337 -5.041110
RightLeg 2.737285 -0.000000 -0.000000
RightFoot -6.384269 -39.830712 13.710205
RightToeBase 3.781247 -0.000000 -0.000000
3664
root 3.568349 32.424011 -0.176107 6.192216 -2.118000 -4.006529
Spine 2.167559 -6.466070 0.571517
Head -5.309199 -7.410897 10.127838
LeftShoulder -15.123599 47.663686 5.485225
LeftArm 52.326610 15.234551 -69.798484
LeftForeArm -14.451166 -0.000000 32.515503
LeftHand 9.849519 -0.000000 -7.190422
LeftHandThumb1 -26.253704 0.000000 33.147579
RightShoulder -3.984313 -11.490334 -12.935043
RightArm 16.373713 -26.051659 84.659287
RightForeArm 6.709091 0.000000 17.206090
RightHand 6.298933 -0.000000 5.168732
RightHandThumb1 -24.326973 -0.000000 -32.862282
LeftUpLeg -1.861692 -0.903471 6.968914
LeftLeg 10.300611 -0.000000 -0.000000
LeftFoot -15.539913 5.419535 -18.614144
LeftToeBase -2.009944 -0.000000 0.000000
RightUpLeg -13.006925 22.227521 -4.621941
RightLeg 2.693990 -0.000000 -0.000000
RightFoot -6.483032 -39.771333 13.327415
RightToeBase 3.885221 -0.000000 -0.000000
3665
root 3.439463 32.422149 -0.072210 6.214372 -2.067463 -4.101399
Spine 2.029326 -6.543410 0.760256
Head -5.231887 -7.395150 9.916957
LeftShoulder -15.184974 47.634593 5.346376
LeftArm 52.169808 14.933526 -70.065312
LeftForeArm -14.402237 -0.000000 32.526902
LeftHand 9.815309 -0.000000 -7.146007
LeftHandThumb1 -26.253704 0.000000 33.147579
RightShoulder -3.986269 -11.482320 -12.939391
RightArm 16.374629 -26.061497 84.642967
RightForeArm 6.622585 0.000000 17.110448
RightHand 6.178354 -0.000000 5.287766
RightHandThumb1 -24.326973 -0.000000 -32.862282
LeftUpLeg -1.777673 -0.971082 7.291177
LeftLeg 10.476386 -0.000000 -0.000000
LeftFoot -15.586554 5.363687 -18.865749
LeftToeBase -2.130118 -0.000000 0.000000
RightUpLeg -12.795925 22.091165 -4.191780
RightLeg 2.696227 -0.000000 -0.000000
RightFoot -6.658463 -39.706290 13.055510
RightToeBase 3.987779 -0.000000 -0.000000
3666
root 3.307598 32.421662 0.025049 6.315315 -2.037181 -4.210072
Spine 1.817502 -6.613259 0.959056
Head -5.161504 -7.382639 9.750773
LeftShoulder -15.319249 47.669500 5.188140
LeftArm 52.127548 14.683578 -70.267769
LeftForeArm -14.425870 -0.000000 32.509522
LeftHand 9.865766 -0.000000 -7.115316
LeftHandThumb1 -26.253704 0.000000 33.147579
RightShoulder -3.997361 -11.524668 -12.930195
RightArm 16.422681 -26.093835 84.592623
RightForeArm 6.692379 -0.000000 17.083176
RightHand 6.272865 -0.000000 5.201711
RightHandThumb1 -24.326973 -0.000000 -32.862282
LeftUpLeg -1.791703 -1.010036 7.628471
LeftLeg 10.677623 -0.000000 -0.000000
LeftFoot -15.622190 5.337706 -19.090566
LeftToeBase -2.278903 -0.000000 0.000000
RightUpLeg -12.731466 22.037554 -3.803905
RightLeg 2.785020 -0.000000 -0.000000
RightFoot -6.837958 -39.631112 12.830824
RightToeBase 4.091637 -0.000000 -0.000000
3667
root 3.178038 32.423635 0.124298 6.393209 -1.995298 -4.301475
Spine 1.635133 -6.682306 1.146118
Head -5.104406 -7.349581 9.585682
LeftShoulder -15.382730 47.627790 5.087943
LeftArm 51.974810 14.445967 -70.543338
LeftForeArm -14.375289 -0.000000 32.543897
LeftHand 9.742556 -0.000000 -6.965826
LeftHandThumb1 -26.253704 0.000000 33.147579
RightShoulder -4.014715 -11.514824 -12.943871
RightArm 16.403953 -26.061325 84.573143
RightForeArm 6.707737 0.000000 17.081610
RightHand 6.251483 0.000000 5.203975
RightHandThumb1 -24.326973 -0.000000 -32.862282
LeftUpLeg -1.778734 -1.157604 7.938998
LeftLeg 10.864573 -0.000000 -0.000000
LeftFoot -15.642378 5.398983 -19.361129
LeftToeBase -2.452187 -0.000000 0.000000
RightUpLeg -12.653846 22.036560 -3.443669
RightLeg 2.911824 -0.000000 -0.000000
RightFoot -7.057256 -39.564717 12.660487
RightToeBase 4.142313 -0.000000 -0.000000
3668
root 3.047828 32.426835 0.215841 6.509623 -1.964199 -4.403245
Spine 1.433781 -6.771294 1.351339
Head -5.063965 -7.274390 9.398062
LeftShoulder -15.500519 47.625192 4.972467
LeftArm 51.901820 14.216346 -70.847228
LeftForeArm -14.364346 -0.000000 32.530524
LeftHand 9.752963 -0.000000 -6.937282
LeftHandThumb1 -26.253704 0.000000 33.147579
RightShoulder -4.002320 -11.515043 -12.985328
RightArm 16.446636 -26.097706 84.532156
RightForeArm 6.625107 -0.000000 17.091600
RightHand 6.278978 -0.000000 4.746432
RightHandThumb1 -24.326973 -0.000000 -32.862282
LeftUpLeg -1.847270 -1.244747 8.261393
LeftLeg 11.113318 -0.000000 -0.000000
LeftFoot -15.654520 5.426803 -19.620256
LeftToeBase -2.611873 -0.000000 0.000000
RightUpLeg -12.659434 22.077900 -3.111603
RightLeg 3.083047 -0.000000 -0.000000
RightFoot -7.343153 -39.488310 12.632685
RightToeBase 4.197685 -0.000000 -0.000000
3669
root 2.916745 32.431735 0.309465 6.596593 -1.927003 -4.528499
Spine 1.260681 -6.851568 1.574947
Head -5.019875 -7.187462 9.224293
LeftShoulder -15.586624 47.664920 4.890930
LeftArm 51.858689 14.015486 -71.128990
LeftForeArm -14.364765 -0.000000 32.523032
LeftHand 9.885752 0.000000 -6.767075
LeftHandThumb1 -26.253704 0.000000 33.147579
RightShoulder -3.993410 -11.496765 -13.022056
RightArm 16.478699 -26.144372 84.479531
RightForeArm 6.715497 -0.000000 17.111100
RightHand 6.126270 -0.000000 5.238133
RightHandThumb1 -24.326973 -0.000000 -32.862282
LeftUpLeg -1.890663 -1.323043 8.607890
LeftLeg 11.371177 -0.000000 -0.000000
LeftFoot -15.668439 5.507138 -19.881888
LeftToeBase -2.824965 -0.000000 0.000000
RightUpLeg -12.646533 22.099292 -2.736954
RightLeg 3.298013 -0.000000 -0.000000
RightFoot -7.615454 -39.371926 12.624770
RightToeBase 4.129173 -0.000000 -0.000000
